<?xml version="1.0" encoding="utf-8"?>
<!-- Generator: Adobe Illustrator 16.0.0, SVG Export Plug-In . SVG Version: 6.00 Build 0)  -->
<!DOCTYPE svg PUBLIC "-//W3C//DTD SVG 1.1//EN" "http://www.w3.org/Graphics/SVG/1.1/DTD/svg11.dtd">
<svg version="1.1" id="Layer_1" xmlns="http://www.w3.org/2000/svg" xmlns:xlink="http://www.w3.org/1999/xlink" x="0px" y="0px"
	 width="476px" height="120.521px" viewBox="0 0 476 120.521" enable-background="new 0 0 476 120.521" xml:space="preserve">
<g>
	<path fill="#FFFF00" stroke="#FFFF00" stroke-width="3" stroke-miterlimit="10" d="M206.822,54.971
		c-1.729-2.039-3.023-4.067-3.888-6.088c-0.862-2.021-1.295-4.051-1.295-6.088c0-3.006,0.959-5.527,2.878-7.564
		c1.916-2.039,4.307-3.059,7.176-3.059c1.899,0,3.729,0.441,5.491,1.322c1.763,0.881,3.471,2.203,5.129,3.963
		c9.636-10.674,18.644-19.334,27.021-25.984C257.71,4.824,263.523,1.5,266.77,1.5c0.172,0.033,0.285,0.086,0.338,0.154
		c0.05,0.07,0.075,0.19,0.075,0.364c0,0.414-1.121,2.659-3.368,6.735c-9.98,18.064-18.963,36.648-26.941,55.75
		c2.21-0.104,4.317-0.726,6.32-1.866c2.005-1.14,4.836-3.574,8.5-7.305c4.73-4.801,8.522-8.376,11.37-10.726
		c2.851-2.348,4.795-3.522,5.83-3.522c0.07,0,0.226,0.026,0.466,0.077c0.241,0.052,0.447,0.096,0.622,0.129
		c-2.695,1.451-6.754,5.009-12.174,10.674c-1.971,2.072-3.509,3.645-4.612,4.716c-3.939,3.868-7.099,6.434-9.482,7.693
		c-2.384,1.263-4.992,2.029-7.824,2.307l-0.828,1.915l-13.887,1.66l2.124-4.975c-2.729-0.863-5.336-2.029-7.823-3.498
		c-2.488-1.467-4.939-3.272-7.356-5.414c-5.461,5.563-10.269,9.552-14.43,11.97c-4.162,2.417-8.231,3.626-12.204,3.626
		c-3.522,0-6.276-0.951-8.264-2.85c-1.986-1.9-2.979-4.525-2.979-7.875c0-2.936,0.854-5.363,2.564-7.281
		c1.709-1.916,3.894-2.875,6.555-2.875c1.795,0,3.246,0.484,4.352,1.451c1.105,0.968,1.658,2.211,1.658,3.73
		s-0.474,2.729-1.425,3.627c-0.949,0.898-2.443,1.555-4.48,1.969c-2.144,0.518-3.517,1.045-4.121,1.58
		c-0.603,0.536-0.907,1.287-0.907,2.254c0,1.313,0.693,2.418,2.073,3.316c1.383,0.898,3.144,1.347,5.286,1.347
		c3.488,0,7.243-1.234,11.27-3.704C197.09,64.186,201.674,60.289,206.822,54.971z M208.118,53.312
		c2.176-2.313,4.353-4.661,6.526-7.046c2.178-2.383,4.303-4.783,6.372-7.203c-0.793-0.793-1.604-1.38-2.433-1.76
		c-0.831-0.381-1.747-0.57-2.746-0.57c-2.521,0-4.828,1.097-6.918,3.291c-2.09,2.193-3.134,4.636-3.134,7.33
		c0,1.14,0.189,2.211,0.57,3.213C206.734,51.568,207.323,52.484,208.118,53.312z M209.256,54.867
		c2.556,2.279,5.088,4.153,7.592,5.621c2.504,1.469,4.896,2.461,7.176,2.979c0.621-1.934,1.097-3.824,1.426-5.673
		c0.327-1.847,0.491-3.636,0.491-5.363c0-2.382-0.302-4.567-0.906-6.554c-0.606-1.985-1.513-3.791-2.721-5.414
		c-2.971,3.315-5.647,6.288-8.03,8.912C211.899,52.001,210.223,53.83,209.256,54.867z M227.495,57.977
		c5.354-9.018,10.95-17.953,16.787-26.814c5.836-8.859,11.95-17.711,18.342-26.553c-4.49,1.934-9.578,5.37-15.259,10.311
		c-5.682,4.939-13.602,12.953-23.755,24.041c1.518,2.383,2.623,4.609,3.314,6.683c0.692,2.073,1.036,4.231,1.036,6.478
		c0,1.209-0.138,3.057-0.414,5.543L227.495,57.977z"/>
	<path fill="#FFFF00" stroke="#FFFF00" stroke-width="3" stroke-miterlimit="10" d="M271.631,54.8
		c2.068-5.654,4.916-10.658,8.543-15.017c3.626-4.357,6.168-6.535,7.632-6.535c0.139,0,0.241,0.055,0.31,0.164
		c0.069,0.111,0.104,0.264,0.104,0.455c0,0.057-0.11,0.276-0.329,0.662c-2.511,4.358-4.373,10.646-5.586,18.863
		c0.496,0,1.179-0.063,2.047-0.186c0.868-0.124,1.482-0.187,1.841-0.187c1.518-3.254,2.745-5.452,3.683-6.599
		c0.938-1.144,1.917-1.717,2.937-1.717c0.605,0,1.068,0.188,1.387,0.559c0.316,0.372,0.474,0.918,0.474,1.635
		c0,1.131-0.461,2.228-1.384,3.29c-0.926,1.06-2.213,1.964-3.868,2.708c-0.36,1.6-0.773,3.15-1.241,4.654
		c-0.469,1.503-1.021,2.985-1.654,4.447l-5.006,0.909c0.661-1.627,1.31-3.144,1.943-4.55c0.635-1.406,1.255-2.703,1.862-3.889
		c-0.413,0-0.868,0.027-1.364,0.083c-0.498,0.056-1.255,0.165-2.276,0.33c-2.179,7.364-5.859,12.955-11.044,16.774
		c-5.187,3.82-11.639,5.729-19.36,5.729c-4.661,0-8.324-0.841-10.983-2.522c-2.662-1.683-3.992-4-3.992-6.949
		c0-1.986,0.656-3.654,1.966-5.007c1.309-1.35,2.943-2.027,4.901-2.027c1.654,0,2.93,0.372,3.825,1.118
		c0.897,0.744,1.347,1.807,1.347,3.184c0,0.995-0.313,1.773-0.933,2.339c-0.62,0.564-1.618,0.972-2.999,1.22
		c-1.765,0.331-2.894,0.689-3.392,1.076c-0.495,0.387-0.744,0.938-0.744,1.654c0,1.131,0.91,2.145,2.729,3.041
		c1.82,0.896,4.04,1.344,6.661,1.344c4.798,0,8.894-1.545,12.286-4.634c3.392-3.087,6.426-8.065,9.102-14.933
		c-3.366,0.689-6.523,1.979-9.475,3.867c-2.951,1.89-4.509,2.834-4.674,2.834c-0.14,0-0.246-0.048-0.332-0.145
		c-0.081-0.097-0.124-0.214-0.124-0.352c0-0.828,1.613-2.145,4.841-3.951C264.517,56.738,267.964,55.489,271.631,54.8z
		 M257.153,54.592c-2.539,0-4.559-0.73-6.062-2.191s-2.255-3.434-2.255-5.916c0-2.675,1.103-5.521,3.31-8.542
		c2.206-3.021,5.228-5.771,9.06-8.253c3.062-1.93,6.177-3.398,9.35-4.405c3.171-1.007,6.328-1.511,9.471-1.511
		c3.256,0,7.124,0.566,11.604,1.697c4.481,1.13,7.274,1.695,8.379,1.695c1.24,0,2.432-0.282,3.577-0.848
		c1.145-0.564,1.76-0.848,1.841-0.848c0.11,0,0.193,0.041,0.249,0.123c0.054,0.084,0.082,0.235,0.082,0.455
		c0,0.967-1.083,2.256-3.247,3.868c-2.165,1.614-4.446,2.421-6.846,2.421c-1.766,0-5.117-0.918-10.055-2.752
		c-4.936-1.833-9.059-2.751-12.367-2.751c-1.932,0-3.861,0.338-5.792,1.015c-1.93,0.676-3.929,1.717-5.997,3.123
		c-3.616,2.48-6.407,5.074-8.379,7.776c-1.97,2.704-2.958,5.282-2.958,7.735c0,1.82,0.456,3.275,1.366,4.365
		c0.911,1.089,2.152,1.633,3.724,1.633c2.95,0,5.943-1.867,8.978-5.604c3.033-3.737,4.55-7.907,4.55-12.515
		c0-0.385-0.028-0.834-0.083-1.344c-0.056-0.51-0.083-0.82-0.083-0.931c0-0.192,0.063-0.358,0.186-0.497
		c0.125-0.137,0.255-0.205,0.394-0.205c0.523,0,1.027,0.702,1.511,2.108c0.48,1.407,0.723,3.048,0.723,4.923
		c0,4.662-1.372,8.521-4.116,11.582C264.522,53.062,261.151,54.592,257.153,54.592z M289.956,51.282
		c1.048-0.578,1.882-1.22,2.503-1.923c0.622-0.703,0.931-1.357,0.931-1.965c0-0.359-0.09-0.654-0.269-0.89
		c-0.179-0.233-0.393-0.351-0.641-0.351c-0.58,0-1.096,0.454-1.553,1.365C290.475,48.43,290.148,49.685,289.956,51.282z"/>
	<g>
		<polygon stroke="#FFFFFF" stroke-width="0.5" points="123.623,101.82 135.307,101.82 129.504,90.91 		"/>
		<path stroke="#FFFFFF" stroke-width="0.5" d="M302.32,88.273c-1.322-0.783-3.447-1.176-6.379-1.176h-2.615v8.527h2.615
			c2.957,0,5.084-0.391,6.379-1.174c1.398-0.852,2.1-1.887,2.1-3.104C304.42,90.133,303.719,89.107,302.32,88.273z"/>
		<path stroke="#FFFFFF" stroke-width="0.5" d="M0.5,70.021v50h475v-50H0.5z M98.998,104.627c-2,3.563-5.303,6.305-9.91,8.227
			c-4.445,1.84-9.709,2.758-15.789,2.758c-9.895,0-17.488-2.139-22.777-6.418c-4-3.244-6-7.115-6-11.611
			c0-4.98,2.342-9.172,7.027-12.564c5.314-3.863,12.736-5.793,22.264-5.793c6.367,0,11.764,1.035,16.186,3.109
			c3.158,1.473,5.855,3.645,8.092,6.52L84.826,92.34c-1.135-1.596-2.455-2.795-3.961-3.594c-2.164-1.133-4.736-1.697-7.721-1.697
			c-6.098,0-10.348,1.992-12.748,5.98c-0.898,1.469-1.348,2.984-1.348,4.553c0,3.25,1.623,5.961,4.869,8.131
			c2.402,1.617,5.609,2.426,9.623,2.426c3.564,0,6.389-0.656,8.475-1.971c1.371-0.867,2.27-2.146,2.693-3.846H73.182v-6.773h27.791
			C100.973,99.26,100.313,102.287,98.998,104.627z M142.57,114.559l-3.473-5.967h-19.344l-3.711,5.967H101.24l20.725-34.232h15.277
			l20.289,34.232H142.57z M194.561,114.559h-30.83V80.326h14.014v26.811h16.816V114.559z M232.574,114.559h-30.83V80.326h14.014
			v26.811h16.816V114.559z M270.432,87.75h-16.658v5.844h15.75v7.424h-15.75v6.119h16.658v7.422H239.76V80.326h30.672V87.75z
			 M306.709,114.559l-13.383-13.141v13.141h-14.014V80.326h21.791c6.367,0,11.08,1.215,14.133,3.637
			c2.473,1.957,3.711,4.254,3.711,6.898c0,3.025-1.422,5.441-4.264,7.248c-1.816,1.15-4.316,1.957-7.502,2.406l16.936,14.043
			H306.709z M344.014,114.559H330V80.326h14.014V114.559z M386.016,87.75h-16.658v5.844h15.75v7.424h-15.75v6.119h16.658v7.422
			h-30.672V80.326h30.672V87.75z M420.24,114.559c-2.791,0.619-5.791,0.93-9,0.93c-6.738,0-12.986-1.297-18.75-3.889l5.998-7.172
			c4.221,2.426,8.348,3.637,12.383,3.637c1.818,0,3.361-0.271,4.627-0.811c1.479-0.607,2.215-1.469,2.215-2.584
			c0-1.014-0.816-1.859-2.451-2.535c-1.213-0.504-3.256-1.021-6.129-1.543c-3.48-0.652-5.668-1.102-6.564-1.352
			c-1.422-0.385-2.635-0.836-3.637-1.355c-2.875-1.502-4.311-3.773-4.311-6.813c0-3.174,1.486-5.801,4.461-7.891
			c3.473-2.453,8.104-3.682,13.895-3.682c5.816,0,11.514,0.928,17.092,2.783l-5.605,6.922c-3.059-1.521-6.146-2.281-9.26-2.281
			c-1.504,0-2.852,0.242-4.037,0.729c-1.346,0.557-2.02,1.293-2.02,2.217c0,0.904,0.885,1.684,2.65,2.342
			c0.791,0.299,3.162,0.822,7.117,1.559c4.957,0.922,8.49,2.227,10.598,3.916c1.818,1.441,2.729,3.291,2.729,5.549
			C432.24,109.025,428.24,112.801,420.24,114.559z"/>
	</g>
	<rect x="0.5" y="70.021" fill="none" stroke="#000000" width="475" height="50"/>
	<line fill="none" stroke="#C1272D" stroke-width="2" x1="0" y1="70.021" x2="476" y2="70.021"/>
	<path stroke="#FFFFFF" stroke-width="0.5" stroke-miterlimit="10" d="M206.367,56.814c-1.707-2.013-2.987-4.016-3.839-6.012
		c-0.854-1.996-1.279-4-1.279-6.012c0-2.969,0.945-5.459,2.841-7.471c1.892-2.013,4.254-3.02,7.087-3.02
		c1.875,0,3.683,0.436,5.423,1.307c1.74,0.867,3.428,2.174,5.065,3.912c9.516-10.541,18.412-19.092,26.685-25.659
		c8.271-6.565,14.011-9.849,17.216-9.849c0.172,0.032,0.282,0.085,0.332,0.152c0.052,0.068,0.077,0.188,0.077,0.359
		c0,0.408-1.107,2.626-3.324,6.65c-9.859,17.84-18.729,36.192-26.607,55.056c2.182-0.103,4.264-0.716,6.242-1.843
		c1.978-1.125,4.775-3.53,8.393-7.214c4.671-4.741,8.416-8.272,11.229-10.593c2.815-2.318,4.733-3.478,5.756-3.478
		c0.069,0,0.223,0.025,0.461,0.076c0.237,0.052,0.441,0.095,0.614,0.128c-2.662,1.434-6.67,4.945-12.023,10.541
		c-1.945,2.047-3.462,3.598-4.556,4.655c-3.888,3.821-7.009,6.354-9.363,7.599c-2.352,1.246-4.929,2.004-7.727,2.277l-0.816,1.893
		l-13.713,1.638l2.098-4.913c-2.695-0.852-5.271-2.002-7.727-3.453c-2.457-1.449-4.879-3.231-7.265-5.347
		c-5.392,5.492-10.141,9.433-14.251,11.819c-4.111,2.387-8.128,3.582-12.051,3.582c-3.479,0-6.198-0.939-8.16-2.815
		c-1.961-1.875-2.942-4.467-2.942-7.776c0-2.899,0.844-5.296,2.532-7.189c1.688-1.893,3.847-2.84,6.474-2.84
		c1.771,0,3.205,0.479,4.298,1.434c1.09,0.955,1.637,2.184,1.637,3.684c0,1.501-0.469,2.695-1.407,3.582
		c-0.939,0.887-2.413,1.534-4.426,1.945c-2.115,0.511-3.472,1.031-4.067,1.559c-0.597,0.53-0.896,1.271-0.896,2.227
		c0,1.296,0.684,2.388,2.046,3.274c1.365,0.888,3.104,1.33,5.22,1.33c3.446,0,7.154-1.22,11.129-3.657
		C196.754,65.914,201.282,62.068,206.367,56.814z M207.646,55.178c2.147-2.285,4.296-4.605,6.446-6.959
		c2.148-2.354,4.247-4.725,6.293-7.112c-0.786-0.785-1.585-1.364-2.405-1.739c-0.818-0.375-1.723-0.563-2.711-0.563
		c-2.491,0-4.768,1.083-6.832,3.249c-2.063,2.167-3.094,4.579-3.094,7.24c0,1.125,0.186,2.184,0.561,3.172
		C206.28,53.455,206.859,54.359,207.646,55.178z M208.771,56.713c2.523,2.251,5.022,4.102,7.497,5.551
		c2.472,1.451,4.835,2.431,7.086,2.941c0.614-1.909,1.083-3.776,1.407-5.602c0.323-1.824,0.485-3.59,0.485-5.297
		c0-2.353-0.298-4.511-0.896-6.471c-0.597-1.961-1.492-3.744-2.686-5.348c-2.935,3.274-5.576,6.209-7.931,8.8
		C211.381,53.883,209.725,55.689,208.771,56.713z M226.78,59.783c5.288-8.904,10.814-17.73,16.579-26.48
		c5.764-8.748,11.803-17.49,18.113-26.223c-4.434,1.91-9.459,5.305-15.068,10.182c-5.611,4.879-13.432,12.791-23.461,23.742
		c1.501,2.354,2.592,4.553,3.274,6.601c0.683,2.047,1.025,4.179,1.025,6.396c0,1.195-0.137,3.02-0.41,5.475L226.78,59.783z"/>
	<path stroke="#FFFFFF" stroke-width="0.5" stroke-miterlimit="10" d="M270.372,55.081c2.045-5.583,4.856-10.525,8.438-14.829
		c3.58-4.303,6.093-6.454,7.536-6.454c0.137,0,0.238,0.054,0.307,0.163c0.069,0.109,0.103,0.26,0.103,0.449
		c0,0.055-0.109,0.272-0.326,0.654c-2.479,4.303-4.317,10.512-5.515,18.627c0.489,0,1.163-0.061,2.021-0.184
		c0.858-0.122,1.464-0.184,1.819-0.184c1.496-3.213,2.709-5.385,3.635-6.516c0.926-1.13,1.893-1.695,2.901-1.695
		c0.599,0,1.055,0.184,1.368,0.552c0.313,0.367,0.47,0.905,0.47,1.612c0,1.117-0.458,2.201-1.369,3.249
		c-0.913,1.048-2.185,1.94-3.818,2.676c-0.355,1.579-0.765,3.111-1.228,4.596s-1.007,2.947-1.634,4.392l-4.942,0.898
		c0.654-1.607,1.293-3.104,1.92-4.494c0.626-1.389,1.238-2.668,1.838-3.839c-0.407,0-0.856,0.026-1.347,0.081
		c-0.491,0.055-1.24,0.164-2.248,0.327c-2.151,7.271-5.787,12.794-10.907,16.565s-11.493,5.657-19.118,5.657
		c-4.604,0-8.218-0.831-10.846-2.491c-2.629-1.661-3.942-3.949-3.942-6.863c0-1.961,0.646-3.608,1.94-4.943
		c1.294-1.334,2.906-2.002,4.841-2.002c1.635,0,2.894,0.367,3.779,1.104c0.885,0.736,1.326,1.783,1.326,3.145
		c0,0.982-0.306,1.75-0.918,2.309s-1.6,0.961-2.962,1.205c-1.743,0.328-2.859,0.682-3.351,1.063
		c-0.49,0.383-0.734,0.926-0.734,1.635c0,1.116,0.899,2.117,2.697,3.002c1.797,0.885,3.988,1.327,6.576,1.327
		c4.738,0,8.784-1.524,12.133-4.575c3.352-3.05,6.346-7.966,8.988-14.747c-3.324,0.681-6.442,1.954-9.356,3.819
		c-2.914,1.866-4.453,2.798-4.615,2.798c-0.136,0-0.245-0.046-0.327-0.143c-0.083-0.095-0.123-0.211-0.123-0.347
		c0-0.818,1.594-2.118,4.779-3.9C263.348,56.995,266.752,55.762,270.372,55.081z M256.076,54.877c-2.507,0-4.502-0.722-5.985-2.165
		c-1.485-1.444-2.227-3.392-2.227-5.843c0-2.641,1.089-5.453,3.269-8.436c2.179-2.982,5.16-5.697,8.946-8.148
		c3.021-1.906,6.1-3.357,9.232-4.352c3.132-0.994,6.25-1.492,9.354-1.492c3.214,0,7.035,0.559,11.46,1.676
		c4.426,1.117,7.183,1.676,8.274,1.676c1.224,0,2.401-0.279,3.532-0.838c1.129-0.559,1.736-0.838,1.817-0.838
		c0.109,0,0.192,0.041,0.245,0.123c0.056,0.082,0.082,0.231,0.082,0.449c0,0.953-1.068,2.227-3.207,3.819
		c-2.137,1.594-4.392,2.39-6.761,2.39c-1.744,0-5.053-0.904-9.926-2.716c-4.876-1.812-8.948-2.718-12.216-2.718
		c-1.907,0-3.813,0.334-5.72,1.001c-1.906,0.669-3.881,1.696-5.923,3.085c-3.569,2.451-6.326,5.011-8.273,7.68
		c-1.946,2.67-2.921,5.215-2.921,7.639c0,1.799,0.449,3.235,1.35,4.311c0.898,1.076,2.124,1.613,3.677,1.613
		c2.913,0,5.867-1.844,8.865-5.535c2.993-3.689,4.492-7.809,4.492-12.357c0-0.381-0.027-0.824-0.082-1.328
		c-0.055-0.503-0.082-0.809-0.082-0.919c0-0.189,0.063-0.353,0.184-0.491c0.124-0.135,0.253-0.203,0.388-0.203
		c0.52,0,1.016,0.694,1.493,2.084c0.476,1.389,0.714,3.009,0.714,4.861c0,4.602-1.355,8.414-4.064,11.438
		C263.353,53.365,260.023,54.877,256.076,54.877z M288.47,51.609c1.036-0.572,1.861-1.206,2.473-1.9
		c0.612-0.694,0.918-1.34,0.918-1.941c0-0.353-0.089-0.646-0.264-0.877c-0.178-0.23-0.389-0.348-0.634-0.348
		c-0.572,0-1.082,0.449-1.531,1.349C288.981,48.79,288.661,50.029,288.47,51.609z"/>
</g>
</svg>
